<?xml version="1.0" encoding="UTF-8"?>
<svg width="660px" height="200px" viewBox="0 0 660 200" version="1.1" xmlns="http://www.w3.org/2000/svg" xmlns:xlink="http://www.w3.org/1999/xlink">
    <title>Binay Informatics_Logo_Full</title>
    <defs>
        <polygon id="path-1" points="0 200 660 200 660 0 0 0"></polygon>
    </defs>
    <g id="Page-1" stroke="none" stroke-width="1" fill="none" fill-rule="evenodd">
        <g id="Binay-Informatics_Logo_Full">
            <mask id="mask-2" fill="white">
                <use xlink:href="#path-1"></use>
            </mask>
            <g id="Clip-10"></g>
            <g id="Group" mask="url(#mask-2)">
                <g transform="translate(15.000000, 16.000000)">
                    <path d="M0,76.8444298 L0,0.0944298063 C0,0.0944298063 28.333,-2.73257019 31.692,22.5494298 L31.692,44.0064298 C31.692,44.0064298 12.847,50.5364298 0,76.8444298" id="Fill-1" fill="#4A80B5"></path>
                    <path d="M62.0894,136.12473 C44.4124,136.12473 30.0804,121.83673 30.0804,104.21073 C30.0804,86.5847298 44.4124,72.2967298 62.0894,72.2967298 C79.7684,72.2967298 94.0994,86.5847298 94.0994,104.21073 C94.0994,121.83673 79.7684,136.12473 62.0894,136.12473 M62.2304,42.4377298 C28.0904,42.4377298 0.4144,70.0307298 0.4144,104.06973 C0.4144,138.10873 28.0904,165.70273 62.2304,165.70273 C96.3714,165.70273 124.0474,138.10873 124.0474,104.06973 C124.0474,70.0307298 96.3714,42.4377298 62.2304,42.4377298" id="Fill-3" fill="#4A80B5"></path>
                    <path d="M133.751,46.7121298 L133.751,142.79913 C133.751,142.79913 135.617,165.42313 155.487,165.70313 L165.283,165.70313 L165.283,67.3291298 C165.283,67.3291298 162.484,46.7121298 144.386,46.7121298 L133.751,46.7121298 Z" id="Fill-5" fill="#4A80B5"></path>
                    <path d="M232.5972,52.1256298 L232.5972,67.6276298 L242.7342,67.6276298 C245.5212,67.6276298 247.6982,66.9636298 249.2632,65.6356298 C250.8262,64.3086298 251.6092,62.4736298 251.6092,60.1326298 C251.6092,54.8736298 248.8882,52.2046298 243.4442,52.1256298 L232.5972,52.1256298 Z M232.5972,43.7636298 L241.3542,43.7636298 C247.3232,43.6586298 250.3072,41.2786298 250.3072,36.6246298 C250.3072,34.0206298 249.5522,32.1466298 248.0392,31.0026298 C246.5272,29.8596298 244.1412,29.2876298 240.8802,29.2876298 L232.5972,29.2876298 L232.5972,43.7636298 Z M220.7642,77.1336298 L220.7642,19.7026298 L240.8802,19.7026298 C247.8482,19.7026298 253.1342,21.0376298 256.7372,23.7066298 C260.3392,26.3756298 262.1412,30.2876298 262.1412,35.4406298 C262.1412,38.2546298 261.4172,40.7326298 259.9722,42.8756298 C258.5252,45.0206298 256.5142,46.5906298 253.9362,47.5896298 C256.8812,48.3256298 259.2022,49.8126298 260.8982,52.0466298 C262.5952,54.2816298 263.4432,57.0176298 263.4432,60.2516298 C263.4432,65.7726298 261.6802,69.9546298 258.1572,72.7946298 C254.6332,75.6346298 249.6112,77.0806298 243.0892,77.1336298 L220.7642,77.1336298 Z" id="Fill-7" fill="#212951"></path>
                    <path d="M272.1609,77.1339298 L283.5989,77.1339298 L283.5989,34.4549298 L272.1609,34.4549298 L272.1609,77.1339298 Z M271.4889,23.4099298 C271.4889,21.7009298 272.0619,20.2939298 273.2049,19.1899298 C274.3489,18.0849298 275.9069,17.5329298 277.8799,17.5329298 C279.8249,17.5329298 281.3769,18.0849298 282.5339,19.1899298 C283.6909,20.2939298 284.2699,21.7009298 284.2699,23.4099298 C284.2699,25.1459298 283.6839,26.5659298 282.5139,27.6699298 C281.3439,28.7749298 279.7979,29.3269298 277.8799,29.3269298 C275.9599,29.3269298 274.4149,28.7749298 273.2449,27.6699298 C272.0739,26.5659298 271.4889,25.1459298 271.4889,23.4099298 L271.4889,23.4099298 Z" id="Fill-9" fill="#212951"></path>
                    <path d="M303.479,34.4547298 L303.834,39.3857298 C306.884,35.5727298 310.973,33.6657298 316.101,33.6657298 C320.624,33.6657298 323.99,34.9937298 326.199,37.6497298 C328.408,40.3057298 329.538,44.2767298 329.591,49.5617298 L329.591,77.1337298 L318.191,77.1337298 L318.191,49.8377298 C318.191,47.4187298 317.666,45.6637298 316.614,44.5717298 C315.562,43.4807298 313.813,42.9347298 311.368,42.9347298 C308.159,42.9347298 305.753,44.3027298 304.149,47.0377298 L304.149,77.1337298 L292.75,77.1337298 L292.75,34.4547298 L303.479,34.4547298 Z" id="Fill-11" fill="#212951"></path>
                    <path d="M353.5337,69.2047298 C355.2167,69.2047298 356.7677,68.8307298 358.1877,68.0807298 C359.6087,67.3317298 360.6597,66.3257298 361.3437,65.0627298 L361.3437,57.7267298 L357.0837,57.7267298 C351.3777,57.7267298 348.3397,59.6987298 347.9717,63.6427298 L347.9327,64.3137298 C347.9327,65.7337298 348.4317,66.9037298 349.4317,67.8247298 C350.4307,68.7457298 351.7987,69.2047298 353.5337,69.2047298 L353.5337,69.2047298 Z M362.9607,77.1337298 C362.4347,76.1077298 362.0537,74.8327298 361.8167,73.3077298 C359.0557,76.3847298 355.4667,77.9227298 351.0487,77.9227298 C346.8677,77.9227298 343.4027,76.7137298 340.6557,74.2937298 C337.9077,71.8747298 336.5337,68.8237298 336.5337,65.1427298 C336.5337,60.6197298 338.2097,57.1487298 341.5627,54.7287298 C344.9147,52.3097298 349.7607,51.0877298 356.0977,51.0607298 L361.3437,51.0607298 L361.3437,48.6147298 C361.3437,46.6427298 360.8377,45.0647298 359.8257,43.8817298 C358.8127,42.6987298 357.2147,42.1067298 355.0327,42.1067298 C353.1127,42.1067298 351.6077,42.5667298 350.5157,43.4877298 C349.4247,44.4087298 348.8797,45.6707298 348.8797,47.2737298 L337.4797,47.2737298 C337.4797,44.8037298 338.2417,42.5147298 339.7677,40.4107298 C341.2927,38.3077298 343.4497,36.6577298 346.2367,35.4607298 C349.0237,34.2647298 352.1537,33.6657298 355.6247,33.6657298 C360.8837,33.6657298 365.0577,34.9867298 368.1477,37.6297298 C371.2377,40.2727298 372.7827,43.9877298 372.7827,48.7727298 L372.7827,67.2717298 C372.8087,71.3217298 373.3747,74.3867298 374.4787,76.4627298 L374.4787,77.1337298 L362.9607,77.1337298 Z" id="Fill-12" fill="#212951"></path>
                    <path d="M405.522,45.1442298 C403.969,44.9342298 402.602,44.8292298 401.419,44.8292298 C397.106,44.8292298 394.28,46.2882298 392.939,49.2062298 L392.939,77.1332298 L381.54,77.1332298 L381.54,34.4552298 L392.308,34.4552298 L392.624,39.5432298 C394.911,35.6252298 398.08,33.6652298 402.129,33.6652298 C403.391,33.6652298 404.575,33.8372298 405.679,34.1782298 L405.522,45.1442298 Z" id="Fill-13" fill="#212951"></path>
                    <path d="M427.6499,61.0006298 L435.5389,34.4546298 L447.7659,34.4546298 L430.6079,83.7606298 L429.6619,86.0086298 C427.1099,91.5826298 422.9029,94.3706298 417.0399,94.3706298 C415.3829,94.3706298 413.6999,94.1206298 411.9909,93.6206298 L411.9909,84.9826298 L413.7259,85.0216298 C415.8809,85.0216298 417.4929,84.6926298 418.5569,84.0356298 C419.6239,83.3786298 420.4579,82.2866298 421.0629,80.7626298 L422.4039,77.2516298 L407.4539,34.4546298 L419.7209,34.4546298 L427.6499,61.0006298 Z" id="Fill-14" fill="#212951"></path>
                    <polygon id="Fill-15" fill="#212951" points="220.7649 166.92193 232.5979 166.92193 232.5979 109.48993 220.7649 109.48993"></polygon>
                    <path d="M253.3047,124.24283 L253.6597,129.17383 C256.7097,125.36083 260.7997,123.45383 265.9277,123.45383 C270.4507,123.45383 273.8167,124.78183 276.0257,127.43683 C278.2347,130.09383 279.3647,134.06383 279.4167,139.34983 L279.4167,166.92183 L268.0177,166.92183 L268.0177,139.62583 C268.0177,137.20683 267.4917,135.45183 266.4407,134.35983 C265.3877,133.26883 263.6397,132.72283 261.1947,132.72283 C257.9857,132.72283 255.5787,134.09083 253.9757,136.82583 L253.9757,166.92183 L242.5757,166.92183 L242.5757,124.24283 L253.3047,124.24283 Z" id="Fill-16" fill="#212951"></path>
                    <path d="M291.1709,166.92153 L291.1709,132.60553 L284.8199,132.60553 L284.8199,124.24253 L291.1709,124.24253 L291.1709,120.61353 C291.1709,115.82753 292.5449,112.11253 295.2929,109.47053 C298.0409,106.82753 301.8869,105.50653 306.8309,105.50653 C308.4079,105.50653 310.3409,105.76953 312.6289,106.29553 L312.5109,115.13053 C311.5639,114.89453 310.4059,114.77553 309.0389,114.77553 C304.7529,114.77553 302.6099,116.78753 302.6099,120.81153 L302.6099,124.24253 L311.0909,124.24253 L311.0909,132.60553 L302.6099,132.60553 L302.6099,166.92153 L291.1709,166.92153 Z" id="Fill-17" fill="#212951"></path>
                    <path d="M326.6319,145.99673 C326.6319,150.05373 327.3939,153.15373 328.9189,155.30073 C330.4449,157.44673 332.6269,158.51973 335.4669,158.51973 C338.2289,158.51973 340.3839,157.45973 341.9369,155.33973 C343.4869,153.21973 344.2639,149.82873 344.2639,145.16773 C344.2639,141.19073 343.4869,138.10873 341.9369,135.92373 C340.3839,133.73773 338.2019,132.64373 335.3889,132.64373 C332.6009,132.64373 330.4449,133.73073 328.9189,135.90373 C327.3939,138.07673 326.6319,141.44073 326.6319,145.99673 L326.6319,145.99673 Z M315.2329,145.18773 C315.2329,140.95373 316.0469,137.18073 317.6779,133.86673 C319.3079,130.55373 321.6549,127.98973 324.7189,126.17573 C327.7809,124.36073 331.3389,123.45373 335.3889,123.45373 C341.1479,123.45373 345.8479,125.21573 349.4889,128.73873 C353.1319,132.26373 355.1629,137.04973 355.5839,143.09773 L355.6629,146.01673 C355.6629,152.56373 353.8349,157.81673 350.1799,161.77373 C346.5249,165.73173 341.6199,167.71073 335.4669,167.71073 C329.3139,167.71073 324.4029,165.73773 320.7349,161.79373 C317.0669,157.84973 315.2329,152.48473 315.2329,145.70073 L315.2329,145.18773 Z" id="Fill-18" fill="#212951"></path>
                    <path d="M386.666,134.93233 C385.114,134.72233 383.747,134.61733 382.563,134.61733 C378.251,134.61733 375.425,136.07633 374.083,138.99433 L374.083,166.92133 L362.684,166.92133 L362.684,124.24333 L373.452,124.24333 L373.768,129.33033 C376.056,125.41233 379.224,123.45333 383.274,123.45333 C384.536,123.45333 385.72,123.62433 386.824,123.96633 L386.666,134.93233 Z" id="Fill-19" fill="#212951"></path>
                    <path d="M402.8384,124.24283 L403.1934,129.01483 C406.2174,125.30683 410.3074,123.45383 415.4594,123.45383 C420.9554,123.45383 424.7294,125.62283 426.7814,129.96183 C429.7774,125.62283 434.0514,123.45383 439.6004,123.45383 C444.2294,123.45383 447.6724,124.80183 449.9344,127.49683 C452.1954,130.19183 453.3264,134.24883 453.3264,139.66583 L453.3264,166.92183 L441.8874,166.92183 L441.8874,139.70483 C441.8874,137.28583 441.4144,135.51683 440.4674,134.39883 C439.5224,133.28183 437.8524,132.72283 435.4594,132.72283 C432.0394,132.72283 429.6724,134.35383 428.3584,137.61383 L428.3994,166.92183 L416.9984,166.92183 L416.9984,139.74483 C416.9984,137.27283 416.5124,135.48383 415.5394,134.37983 C414.5674,133.27483 412.9084,132.72283 410.5684,132.72283 C407.3344,132.72283 404.9944,134.06383 403.5474,136.74683 L403.5474,166.92183 L392.1484,166.92183 L392.1484,124.24283 L402.8384,124.24283 Z" id="Fill-20" fill="#212951"></path>
                    <path d="M477.3872,158.99283 C479.0712,158.99283 480.6212,158.61883 482.0412,157.86883 C483.4612,157.11983 484.5142,156.11383 485.1982,154.85083 L485.1982,147.51483 L480.9382,147.51483 C475.2312,147.51483 472.1942,149.48683 471.8262,153.43083 L471.7872,154.10183 C471.7872,155.52183 472.2852,156.69183 473.2852,157.61283 C474.2832,158.53383 475.6532,158.99283 477.3872,158.99283 L477.3872,158.99283 Z M486.8152,166.92183 C486.2892,165.89583 485.9082,164.62083 485.6702,163.09583 C482.9102,166.17283 479.3212,167.71083 474.9032,167.71083 C470.7212,167.71083 467.2562,166.50183 464.5082,164.08183 C461.7602,161.66283 460.3872,158.61183 460.3872,154.93083 C460.3872,150.40783 462.0632,146.93683 465.4162,144.51683 C468.7702,142.09783 473.6142,140.87583 479.9512,140.84883 L485.1982,140.84883 L485.1982,138.40283 C485.1982,136.43083 484.6922,134.85283 483.6782,133.66983 C482.6662,132.48583 481.0692,131.89483 478.8872,131.89483 C476.9672,131.89483 475.4612,132.35483 474.3692,133.27483 C473.2802,134.19583 472.7332,135.45883 472.7332,137.06183 L461.3342,137.06183 C461.3342,134.59183 462.0962,132.30283 463.6212,130.19883 C465.1472,128.09583 467.3032,126.44483 470.0902,125.24883 C472.8772,124.05283 476.0062,123.45383 479.4792,123.45383 C484.7372,123.45383 488.9122,124.77483 492.0022,127.41783 C495.0922,130.05983 496.6372,133.77483 496.6372,138.56083 L496.6372,157.05983 C496.6622,161.10983 497.2292,164.17483 498.3322,166.25083 L498.3322,166.92183 L486.8152,166.92183 Z" id="Fill-21" fill="#212951"></path>
                    <path d="M519.0415,113.75063 L519.0415,124.24263 L526.3385,124.24263 L526.3385,132.60463 L519.0415,132.60463 L519.0415,153.90463 C519.0415,155.48263 519.3425,156.61363 519.9475,157.29763 C520.5535,157.98063 521.7095,158.32263 523.4185,158.32263 C524.6825,158.32263 525.7995,158.23063 526.7715,158.04663 L526.7715,166.68563 C524.5355,167.36863 522.2345,167.71063 519.8695,167.71063 C511.8755,167.71063 507.7995,163.67463 507.6415,155.60163 L507.6415,132.60463 L501.4085,132.60463 L501.4085,124.24263 L507.6415,124.24263 L507.6415,113.75063 L519.0415,113.75063 Z" id="Fill-22" fill="#212951"></path>
                    <path d="M533.2799,166.92193 L544.7189,166.92193 L544.7189,124.24293 L533.2799,124.24293 L533.2799,166.92193 Z M532.6099,113.19793 C532.6099,111.48893 533.1819,110.08193 534.3269,108.97693 C535.4689,107.87293 537.0279,107.32093 539.0009,107.32093 C540.9459,107.32093 542.4969,107.87293 543.6549,108.97693 C544.8109,110.08193 545.3889,111.48893 545.3889,113.19793 C545.3889,114.93293 544.8049,116.35293 543.6349,117.45793 C542.4629,118.56193 540.9189,119.11493 539.0009,119.11493 C537.0809,119.11493 535.5359,118.56193 534.3659,117.45793 C533.1959,116.35293 532.6099,114.93293 532.6099,113.19793 L532.6099,113.19793 Z" id="Fill-23" fill="#212951"></path>
                    <path d="M571.856,158.52023 C573.96,158.52023 575.669,157.94223 576.985,156.78523 C578.299,155.62723 578.983,154.08923 579.036,152.16923 L589.725,152.16923 C589.698,155.06223 588.911,157.71123 587.358,160.11823 C585.807,162.52323 583.684,164.39123 580.989,165.71823 C578.292,167.04523 575.315,167.71023 572.053,167.71023 C565.954,167.71023 561.141,165.77123 557.618,161.89223 C554.094,158.01423 552.333,152.65623 552.333,145.81923 L552.333,145.06923 C552.333,138.49623 554.081,133.24923 557.579,129.33123 C561.075,125.41323 565.874,123.45423 571.975,123.45423 C577.313,123.45423 581.592,124.97223 584.815,128.00923 C588.036,131.04623 589.672,135.08923 589.725,140.13923 L579.036,140.13923 C578.983,137.91823 578.299,136.11423 576.985,134.72623 C575.669,133.33823 573.934,132.64423 571.778,132.64423 C569.122,132.64423 567.116,133.61223 565.762,135.54723 C564.409,137.48423 563.731,140.62423 563.731,144.96923 L563.731,146.15523 C563.731,150.55323 564.401,153.71323 565.743,155.63623 C567.085,157.55923 569.122,158.52023 571.856,158.52023" id="Fill-24" fill="#212951"></path>
                    <path d="M619.3482,155.12763 C619.3482,153.73363 618.6592,152.63663 617.2782,151.83363 C615.8972,151.03163 613.6802,150.31563 610.6312,149.68463 C600.4812,147.55463 595.4052,143.24163 595.4052,136.74663 C595.4052,132.95963 596.9772,129.79863 600.1192,127.26063 C603.2602,124.72263 607.3692,123.45363 612.4462,123.45363 C617.8622,123.45363 622.1942,124.72963 625.4422,127.27963 C628.6902,129.83063 630.3132,133.14463 630.3132,137.22063 L618.9142,137.22063 C618.9142,135.58963 618.3872,134.24163 617.3362,133.17663 C616.2842,132.11163 614.6412,131.57863 612.4072,131.57863 C610.4872,131.57863 609.0002,132.01363 607.9502,132.88063 C606.8972,133.74863 606.3712,134.85363 606.3712,136.19363 C606.3712,137.45663 606.9692,138.47663 608.1662,139.25163 C609.3622,140.02663 611.3812,140.69763 614.2212,141.26363 C617.0612,141.82863 619.4532,142.46663 621.3992,143.17663 C627.4202,145.38563 630.4322,149.21063 630.4322,154.65363 C630.4322,158.54663 628.7622,161.69463 625.4222,164.10163 C622.0822,166.50763 617.7702,167.71063 612.4852,167.71063 C608.9092,167.71063 605.7332,167.07263 602.9592,165.79763 C600.1842,164.52263 598.0082,162.77363 596.4302,160.55163 C594.8542,158.32963 594.0652,155.93063 594.0652,153.35263 L604.8712,153.35263 C604.9772,155.37763 605.7272,156.92963 607.1192,158.00763 C608.5142,159.08563 610.3812,159.62463 612.7212,159.62463 C614.9052,159.62463 616.5532,159.21063 617.6722,158.38163 C618.7892,157.55363 619.3482,156.46863 619.3482,155.12763" id="Fill-25" fill="#212951"></path>
                </g>
            </g>
        </g>
    </g>
</svg>