<svg xmlns="http://www.w3.org/2000/svg" version="1.1" xmlns:xlink="http://www.w3.org/1999/xlink" xmlns:svgjs="http://svgjs.dev/svgjs" viewBox="0 0 3.8510999396697376 3.829834873562159"><g transform="matrix(1,0,0,1,1.0385295600301814,1.4391194367810796)"><rect width="3.8510999396697376" height="3.8510999396697376" x="-1.0385295600301814" y="-1.4497519698348689" fill="#ffffff"></rect><g transform="matrix(1,0,0,1,0,0)"><g clip-path="url(#SvgjsClipPath1002)"><path d=" M 2.4500027687117183 0.47579799999999994 C 2.4500027687117183 1.3448815858836027 1.7454714626345011 2.04941289196082 0.8763878767508982 2.04941289196082 C 0.007304290867295116 2.04941289196082 -0.6972270152099217 1.3448815858836027 -0.6972270152099217 0.47579799999999994 C -0.6972270152099217 -0.3932855858836032 0.007304290867295116 -1.09781689196082 0.8763878767508982 -1.09781689196082 C 1.7454714626345011 -1.09781689196082 2.4500027687117183 -0.3932855858836032 2.4500027687117183 0.47579799999999994 Z" fill="#000000" transform="matrix(1,0,0,1,0,0)" fill-rule="nonzero"></path></g></g><g transform="matrix(1,0,0,1,0,0)"><path d=" M 0.37431200000000003 0.0013179999999999303 Q 0.45207400000000003 0.0013179999999999303 0.4942500000000001 0.017792999999999837 Q 0.5364260000000001 0.034267999999999854 0.56674 0.05271999999999988 Q 0.5825560000000001 0.061945999999999835 0.5924410000000001 0.06655899999999992 Q 0.602326 0.0711719999999999 0.6115520000000001 0.0711719999999999 Q 0.6326400000000001 0.0711719999999999 0.6405480000000001 0.013179999999999858 L 0.6708620000000001 0.013179999999999858 Q 0.669544 0.03822199999999987 0.6675670000000001 0.07314899999999991 Q 0.6655900000000001 0.10807599999999995 0.664931 0.16474999999999995 Q 0.6642720000000001 0.22142399999999995 0.6642720000000001 0.31368399999999996 L 0.6339580000000001 0.31368399999999996 Q 0.6286860000000001 0.24514799999999992 0.602326 0.1805659999999999 Q 0.5759660000000001 0.11598399999999986 0.5278590000000001 0.07446699999999984 Q 0.47975200000000007 0.032949999999999924 0.40989800000000004 0.032949999999999924 Q 0.34663400000000005 0.032949999999999924 0.30577600000000005 0.06853599999999993 Q 0.26491800000000004 0.10412199999999994 0.26491800000000004 0.16738599999999992 Q 0.26491800000000004 0.2201059999999999 0.29127800000000004 0.2576689999999999 Q 0.31763800000000003 0.29523199999999994 0.36838100000000007 0.33081799999999995 Q 0.41912400000000005 0.36640399999999995 0.49161400000000005 0.41648799999999997 Q 0.5548780000000001 0.4573459999999999 0.6049620000000001 0.4982039999999999 Q 0.6550460000000001 0.5390619999999999 0.6853600000000001 0.5904639999999999 Q 0.715674 0.6418659999999999 0.715674 0.713038 Q 0.715674 0.800026 0.6702030000000001 0.8567 Q 0.6247320000000001 0.913374 0.5509240000000001 0.941711 Q 0.47711600000000004 0.970048 0.38881000000000004 0.970048 Q 0.30709400000000003 0.970048 0.25832800000000006 0.954232 Q 0.20956200000000003 0.938416 0.17661200000000002 0.921282 Q 0.14761600000000002 0.90283 0.13180000000000003 0.90283 Q 0.11071200000000002 0.90283 0.102804 0.960822 L 0.07249000000000001 0.960822 Q 0.07512600000000001 0.92919 0.075785 0.887014 Q 0.07644400000000001 0.844838 0.077103 0.776961 Q 0.07776200000000001 0.7090839999999999 0.07776200000000001 0.604962 L 0.10807600000000002 0.604962 Q 0.11334800000000002 0.69195 0.13773100000000002 0.767735 Q 0.162114 0.8435199999999999 0.21285700000000002 0.8896499999999999 Q 0.26360000000000006 0.93578 0.34795200000000004 0.93578 Q 0.416488 0.93578 0.46393600000000007 0.898876 Q 0.5113840000000001 0.861972 0.5113840000000001 0.788164 Q 0.5113840000000001 0.706448 0.45602800000000004 0.6530689999999999 Q 0.40067200000000003 0.59969 0.313684 0.5430159999999999 Q 0.251738 0.5021579999999999 0.19770000000000001 0.46129999999999993 Q 0.143662 0.420442 0.11137100000000001 0.3677219999999999 Q 0.07908000000000001 0.3150019999999999 0.07908000000000001 0.24251199999999995 Q 0.07908000000000001 0.1594779999999999 0.12059700000000001 0.10609899999999994 Q 0.162114 0.05271999999999988 0.22999100000000003 0.027018999999999904 Q 0.297868 0.0013179999999999303 0.37431200000000003 0.0013179999999999303 M 1.33912012625 -1.1102230246251565e-16 Q 1.42874412625 -1.1102230246251565e-16 1.4854181262500001 0.025041999999999898 Q 1.54209212625 0.050083999999999906 1.58690412625 0.08566999999999991 Q 1.60272012625 0.09753199999999984 1.6132641262500003 0.09753199999999984 Q 1.63830612625 0.09753199999999984 1.64621412625 0.018451999999999913 L 1.67652812625 0.018451999999999913 Q 1.6738921262500002 0.06985399999999986 1.6725741262500002 0.14300299999999988 Q 1.67125612625 0.2161519999999999 1.67125612625 0.33740799999999993 L 1.6409421262500001 0.33740799999999993 Q 1.6317161262500002 0.2583279999999999 1.61260512625 0.19967699999999988 Q 1.59349412625 0.14102599999999987 1.54209212625 0.09884999999999988 Q 1.51046012625 0.06853599999999993 1.46367112625 0.05140199999999984 Q 1.41688212625 0.034267999999999854 1.36943412625 0.034267999999999854 Q 1.29694412625 0.034267999999999854 1.2455421262500002 0.07183099999999987 Q 1.19414012625 0.10939399999999988 1.1611901262500002 0.1739759999999999 Q 1.1282401262500001 0.23855799999999994 1.11242412625 0.31961499999999987 Q 1.09660812625 0.4006719999999999 1.09660812625 0.4876599999999999 Q 1.09660812625 0.7249 1.16184912625 0.834294 Q 1.22709012625 0.943688 1.34966412625 0.943688 Q 1.38129612625 0.943688 1.4050201262500002 0.93578 Q 1.42874412625 0.927872 1.44324212625 0.917328 Q 1.46169412625 0.904148 1.46828412625 0.888991 Q 1.47487412625 0.873834 1.47487412625 0.848792 L 1.47487412625 0.7196279999999999 Q 1.47487412625 0.659 1.46498912625 0.6293449999999999 Q 1.4551041262500002 0.59969 1.42610812625 0.589146 Q 1.3971121262500001 0.578602 1.34175612625 0.5772839999999999 L 1.34175612625 0.550924 Q 1.36943412625 0.5522419999999999 1.4083151262500002 0.552901 Q 1.4471961262500002 0.5535599999999999 1.4893721262500002 0.554219 Q 1.5315481262500001 0.554878 1.56713412625 0.554878 Q 1.6224901262500002 0.554878 1.66862012625 0.5535599999999999 Q 1.7147501262500002 0.5522419999999999 1.74374612625 0.550924 L 1.74374612625 0.5772839999999999 Q 1.7068421262500002 0.57992 1.6956391262500001 0.5983719999999999 Q 1.68443612625 0.616824 1.68443612625 0.6906319999999999 L 1.68443612625 0.951596 L 1.6580761262500001 0.951596 Q 1.6567581262500002 0.92919 1.64819112625 0.90283 Q 1.6396241262500002 0.87647 1.6198541262500001 0.87647 Q 1.61062812625 0.87647 1.59547112625 0.881083 Q 1.5803141262500002 0.885696 1.5486821262500001 0.904148 Q 1.49991612625 0.931826 1.4458781262500002 0.950937 Q 1.39184012625 0.970048 1.33253012625 0.970048 Q 1.10188012625 0.970048 0.98194212625 0.844838 Q 0.86200412625 0.7196279999999999 0.86200412625 0.49556799999999995 Q 0.86200412625 0.34531599999999996 0.92329112625 0.23460399999999992 Q 0.98457812625 0.12389199999999989 1.09199512625 0.061945999999999835 Q 1.19941212625 -1.1102230246251565e-16 1.33912012625 -1.1102230246251565e-16" fill="#ffffff" fill-rule="nonzero"></path></g><g transform="matrix(1,0,0,1,0,0)"></g></g><defs><clipPath id="SvgjsClipPath1002"><path d=" M -0.7184920813175003 -1.1190819580683986 h 3.2110249822443757 v 3.189759916136797 h -3.2110249822443757 Z"></path></clipPath></defs></svg>